<svg xmlns="http://www.w3.org/2000/svg" viewBox="0 -1 292 186" role="img" aria-label="Verus Virtus">
  <path fill="#f6f4ee" d="M237.39,81.93c6.08-3.93,11.23-8.09,14.14-14.41,3.25-7.07,3.37-14.34-.38-21.55-6.05-11.62-19.27-14.07-32.59-12.44-9.98,1.22-17.58,6.96-22.39,15.88l-72.51,134.6-30.69.14L24.34,51.13,0,3.15l42.97-.02,66.45,128.75,51-94.31C172.69,14.88,194.06.71,220.23.13c13.25-.64,26.29.93,38.13,6.69,18.23,8.86,29.8,26.21,31.52,45.32,1.84,20.37-7.52,39.87-24.64,51.11l-39.19,25.73c-7.91,5.19-14.58,11.92-17.24,20.89h82.5l-.05,34.29h-126.02c.61-35.04,13.3-64.15,42.73-83.19l29.41-19.03h.01Z"/>
</svg>
